<?xml version="1.0" standalone="no"?>
<!DOCTYPE svg PUBLIC "-//W3C//DTD SVG 20010904//EN"
 "http://www.w3.org/TR/2001/REC-SVG-20010904/DTD/svg10.dtd">
<svg version="1.0" xmlns="http://www.w3.org/2000/svg"
 width="512.000000pt" height="512.000000pt" viewBox="0 0 512.000000 512.000000"
 preserveAspectRatio="xMidYMid meet">

<g transform="translate(0.000000,512.000000) scale(0.100000,-0.100000)"
fill="#000000" stroke="none">
<path d="M2311 5109 c-118 -11 -153 -25 -171 -69 -10 -24 -10 -36 0 -61 19
-45 56 -58 133 -46 111 18 487 14 622 -7 149 -22 348 -73 480 -121 148 -54
148 -54 182 -40 69 29 65 119 -8 155 -60 31 -325 116 -429 138 -245 53 -572
73 -809 51z"/>
<path d="M1730 4981 c-168 -60 -195 -74 -210 -110 -11 -28 -11 -37 3 -65 23
-49 60 -59 128 -34 30 11 101 36 159 55 58 20 115 45 128 56 28 26 29 75 1
111 -29 37 -80 34 -209 -13z"/>
<path d="M2390 4774 c-116 -11 -275 -38 -381 -64 -140 -35 -306 -94 -332 -118
-48 -43 -38 -114 19 -138 31 -13 40 -12 91 7 282 104 517 149 773 149 257 0
490 -45 775 -150 56 -20 61 -21 92 -6 55 26 67 92 24 135 -42 42 -355 135
-561 166 -103 15 -411 27 -500 19z"/>
<path d="M2440 4428 c-335 -19 -645 -124 -931 -316 -433 -291 -720 -747 -806
-1277 -24 -150 -22 -437 5 -585 95 -523 381 -966 812 -1255 102 -68 314 -173
425 -210 44 -15 85 -32 91 -38 7 -7 56 -104 109 -217 185 -389 203 -423 246
-462 104 -95 271 -86 359 19 18 21 99 177 180 348 82 171 155 313 162 317 7 4
58 24 113 44 1005 367 1502 1513 1081 2496 -144 336 -377 619 -675 820 -352
236 -741 341 -1171 316z m444 -197 c214 -43 438 -177 663 -394 l112 -108 -25
-52 c-13 -29 -24 -64 -24 -78 0 -20 -8 -30 -32 -40 -18 -7 -52 -32 -75 -55
-97 -98 -94 -262 8 -363 63 -63 74 -66 300 -69 l206 -3 22 -97 c93 -424 51
-808 -129 -1190 -37 -76 -136 -246 -164 -279 -1 -1 -49 16 -107 38 -124 49
-330 103 -460 122 l-94 13 0 35 c0 19 9 159 20 312 l19 277 59 0 c51 0 62 4
88 29 20 20 29 39 29 61 0 22 -9 41 -29 61 -25 24 -37 29 -80 29 -46 0 -51 2
-51 23 0 12 9 141 20 287 11 146 20 268 20 273 0 4 26 7 58 7 92 0 135 46 111
117 -13 41 -56 63 -119 63 -41 0 -41 0 -36 33 3 17 15 177 27 355 22 321 22
323 3 350 -27 37 -95 69 -190 89 -114 24 -508 24 -614 0 -96 -22 -171 -59
-192 -95 -14 -23 -22 -90 -37 -313 -12 -156 -23 -314 -27 -351 l-6 -68 -44 0
c-67 0 -110 -22 -123 -63 -23 -70 20 -117 107 -117 53 0 54 0 48 -27 -3 -16
-13 -148 -22 -295 l-18 -268 -59 0 c-51 0 -62 -4 -88 -29 -65 -66 -18 -151 83
-151 l51 0 -6 -67 c-3 -38 -14 -174 -23 -303 -9 -129 -20 -239 -25 -244 -4 -4
-56 -16 -116 -26 -201 -33 -405 -94 -579 -174 l-78 -36 -23 27 c-57 68 -176
256 -218 346 -59 123 -107 267 -137 405 -20 94 -23 135 -23 332 0 252 10 322
72 515 49 151 119 298 210 435 104 156 303 357 457 459 223 148 479 246 736
281 119 16 422 5 544 -19z m-3 -315 c98 -5 179 -23 179 -40 1 -30 -42 -613
-45 -623 -3 -10 -80 -13 -340 -13 l-335 0 0 43 c0 23 9 161 20 307 11 146 20
272 20 282 0 13 20 20 93 32 134 23 173 24 408 12z m1000 -278 c64 -75 239
-362 239 -393 0 -3 -106 -5 -236 -5 l-236 0 -29 29 c-34 34 -37 68 -9 103 15
20 31 26 75 30 40 3 62 11 80 28 23 21 25 30 22 96 -2 68 0 74 27 103 35 37
42 38 67 9z m-881 -598 c0 -38 -28 -438 -36 -507 l-5 -53 -341 0 -340 0 6 63
c9 90 36 467 36 500 l0 27 340 0 340 0 0 -30z m-55 -797 c-8 -85 -35 -468 -35
-503 l0 -30 -340 0 -340 0 0 33 c0 43 29 461 36 515 l5 42 340 0 340 0 -6 -57z"/>
<path d="M1329 3235 c-89 -29 -177 -131 -194 -226 -5 -29 -13 -38 -42 -48 -47
-17 -109 -75 -136 -125 -28 -54 -30 -165 -3 -216 25 -49 74 -98 121 -123 38
-21 55 -22 333 -25 343 -4 369 1 450 73 179 161 99 449 -140 499 -19 4 -32 19
-48 51 -56 116 -214 181 -341 140z m141 -190 c35 -18 60 -62 60 -105 0 -20 9
-40 25 -56 22 -22 31 -24 94 -22 62 3 72 0 95 -21 50 -47 51 -121 1 -171 l-25
-25 -286 0 -286 0 -19 24 c-45 55 -7 129 71 137 78 9 89 14 104 43 11 19 13
45 9 84 -6 54 -4 58 30 92 39 39 78 45 127 20z"/>
<path d="M2474 3647 c-24 -21 -28 -32 -32 -103 l-4 -80 33 -28 c39 -34 82 -30
117 10 19 21 22 37 22 100 0 66 -3 78 -25 99 -31 32 -75 32 -111 2z"/>
<path d="M2823 3655 c-26 -18 -43 -72 -43 -137 0 -56 28 -95 77 -104 27 -5 37
-1 61 23 23 22 30 41 36 89 4 34 2 72 -3 86 -20 53 -84 74 -128 43z"/>
<path d="M2416 2877 c-31 -31 -44 -143 -22 -186 27 -51 96 -59 136 -16 18 20
24 39 28 97 4 68 2 75 -21 101 -34 35 -88 37 -121 4z"/>
<path d="M2762 2880 c-23 -21 -28 -36 -36 -109 -10 -89 43 -144 114 -119 42
14 60 54 60 133 0 57 -3 69 -25 90 -30 31 -82 33 -113 5z"/>
<path d="M2359 2104 c-20 -21 -24 -38 -27 -99 -4 -68 -2 -76 21 -99 35 -35 89
-35 122 -1 24 23 32 69 27 154 -4 66 -95 96 -143 45z"/>
<path d="M2700 2105 c-18 -20 -24 -39 -28 -99 -4 -70 -3 -76 21 -100 34 -34
89 -35 121 -3 49 49 42 201 -9 221 -37 14 -82 6 -105 -19z"/>
<path d="M238 3595 c-59 -33 -172 -400 -212 -690 -32 -233 -29 -605 6 -713 14
-45 66 -69 110 -51 44 18 56 55 45 137 -17 122 -13 483 7 617 24 160 75 355
130 505 50 132 51 157 9 190 -30 23 -58 25 -95 5z"/>
<path d="M4799 3595 c-53 -29 -53 -62 -3 -197 124 -331 172 -674 144 -1035
-14 -187 -11 -202 40 -223 41 -17 88 2 105 44 16 37 35 249 35 379 0 289 -66
641 -170 910 -34 87 -47 110 -70 122 -35 18 -48 18 -81 0z"/>
<path d="M548 3460 c-52 -40 -148 -353 -184 -595 -23 -159 -23 -457 0 -610 35
-224 133 -552 177 -587 48 -40 139 -4 139 54 0 13 -18 74 -40 136 -74 209
-105 356 -120 575 -19 259 19 542 107 791 59 171 63 197 29 230 -30 31 -73 34
-108 6z"/>
<path d="M4494 3470 c-27 -11 -54 -48 -54 -75 0 -11 16 -62 36 -114 86 -228
127 -463 126 -726 0 -254 -34 -449 -121 -695 -23 -63 -41 -125 -41 -138 0 -58
91 -94 139 -54 44 35 142 363 177 587 23 153 23 451 0 610 -33 219 -130 549
-175 589 -22 20 -61 27 -87 16z"/>
<path d="M160 1963 c-33 -12 -60 -47 -60 -78 0 -55 90 -306 123 -342 27 -30
89 -31 117 -3 33 33 33 61 2 141 -16 41 -39 106 -52 144 -33 100 -45 121 -81
134 -18 6 -32 11 -33 10 -1 0 -8 -3 -16 -6z"/>
<path d="M4905 1960 c-31 -12 -40 -27 -70 -120 -15 -47 -41 -120 -58 -162 -27
-70 -28 -81 -17 -109 16 -38 67 -63 102 -50 45 17 60 45 124 235 47 137 45
175 -7 201 -31 17 -45 18 -74 5z"/>
</g>
</svg>
